HIERARCHY
ROOT Hips
{
	OFFSET 0.00000 0.00000 0.00000
	CHANNELS 6 Xposition Yposition Zposition Zrotation Yrotation Xrotation 
	JOINT LHipJoint
	{
		OFFSET 0 0 0
		CHANNELS 3 Zrotation Yrotation Xrotation
		JOINT LeftUpLeg
		{
			OFFSET 1.57338 -1.94743 0.52196
			CHANNELS 3 Zrotation Yrotation Xrotation
			JOINT LeftLeg
			{
				OFFSET 2.60333 -7.15259 0.00000
				CHANNELS 3 Zrotation Yrotation Xrotation
				JOINT LeftFoot
				{
					OFFSET 2.77855 -7.63400 0.00000
					CHANNELS 3 Zrotation Yrotation Xrotation
					JOINT LeftToeBase
					{
						OFFSET 0.19847 -0.54529 2.28466
						CHANNELS 3 Zrotation Yrotation Xrotation
						End Site
						{
							OFFSET 0.00000 -0.00000 1.17993
						}
					}
				}
			}
		}
	}
	JOINT RHipJoint
	{
		OFFSET 0 0 0
		CHANNELS 3 Zrotation Yrotation Xrotation
		JOINT RightUpLeg
		{
			OFFSET -1.61527 -1.94743 0.52196
			CHANNELS 3 Zrotation Yrotation Xrotation
			JOINT RightLeg
			{
				OFFSET -2.53829 -6.97390 0.00000
				CHANNELS 3 Zrotation Yrotation Xrotation
				JOINT RightFoot
				{
					OFFSET -2.80762 -7.71387 0.00000
					CHANNELS 3 Zrotation Yrotation Xrotation
					JOINT RightToeBase
					{
						OFFSET -0.30536 -0.83898 2.28801
						CHANNELS 3 Zrotation Yrotation Xrotation
						End Site
						{
							OFFSET -0.00000 -0.00000 1.21323
						}
					}
				}
			}
		}
	}
	JOINT LowerBack
	{
		OFFSET 0 0 0
		CHANNELS 3 Zrotation Yrotation Xrotation
		JOINT Spine
		{
			OFFSET -0.04381 1.99497 -0.19778
			CHANNELS 3 Zrotation Yrotation Xrotation
			JOINT Spine1
			{
				OFFSET -0.01959 2.01295 -0.04372
				CHANNELS 3 Zrotation Yrotation Xrotation
				JOINT Neck
				{
					OFFSET 0 0 0
					CHANNELS 3 Zrotation Yrotation Xrotation
					JOINT Neck1
					{
						OFFSET -0.05459 1.76913 0.09708
						CHANNELS 3 Zrotation Yrotation Xrotation
						JOINT Head
						{
							OFFSET 0.09461 1.77368 -0.11172
							CHANNELS 3 Zrotation Yrotation Xrotation
							End Site
							{
								OFFSET 0.03812 1.78157 -0.04834
							}
						}
					}
				}
				JOINT LeftShoulder
				{
					OFFSET 0 0 0
					CHANNELS 3 Zrotation Yrotation Xrotation
					JOINT LeftArm
					{
						OFFSET 3.50922 1.24034 -0.28866
						CHANNELS 3 Zrotation Yrotation Xrotation
						JOINT LeftForeArm
						{
							OFFSET 5.40188 -0.00000 0.00000
							CHANNELS 3 Zrotation Yrotation Xrotation
							JOINT LeftHand
							{
								OFFSET 3.68559 -0.00000 0.00000
								CHANNELS 3 Zrotation Yrotation Xrotation
								JOINT LeftFingerBase
								{
									OFFSET 0 0 0
									CHANNELS 3 Zrotation Yrotation Xrotation
									JOINT LeftHandIndex1
									{
										OFFSET 0.61753 -0.00000 0.00000
										CHANNELS 3 Zrotation Yrotation Xrotation
										End Site
										{
											OFFSET 0.49787 -0.00000 0.00000
										}
									}
								}
								JOINT LThumb
								{
									OFFSET 0 0 0
									CHANNELS 3 Zrotation Yrotation Xrotation
									End Site
									{
										OFFSET 0.50547 -0.00000 0.50547
									}
								}
							}
						}
					}
				}
				JOINT RightShoulder
				{
					OFFSET 0 0 0
					CHANNELS 3 Zrotation Yrotation Xrotation
					JOINT RightArm
					{
						OFFSET -2.95373 1.39649 -0.27346
						CHANNELS 3 Zrotation Yrotation Xrotation
						JOINT RightForeArm
						{
							OFFSET -6.10670 -0.00000 -0.00000
							CHANNELS 3 Zrotation Yrotation Xrotation
							JOINT RightHand
							{
								OFFSET -3.63052 -0.00000 0.00000
								CHANNELS 3 Zrotation Yrotation Xrotation
								JOINT RightFingerBase
								{
									OFFSET 0 0 0
									CHANNELS 3 Zrotation Yrotation Xrotation
									JOINT RightHandIndex1
									{
										OFFSET -0.58385 -0.00000 0.00000
										CHANNELS 3 Zrotation Yrotation Xrotation
										End Site
										{
											OFFSET -0.47071 -0.00000 0.00000
										}
									}
								}
								JOINT RThumb
								{
									OFFSET 0 0 0
									CHANNELS 3 Zrotation Yrotation Xrotation
									End Site
									{
										OFFSET -0.47790 -0.00000 0.47790
									}
								}
							}
						}
					}
				}
			}
		}
	}
}
MOTION
Frames: 12
Frame Time: .0083333
0.8702 23.2572 -0.8062 -0.8575 -3.9318 4.3557 0.0000 0.0000 0.0000 -17.8950 -2.7234 -3.2682 0.4488 4.2983 11.9174 -2.0650 32.5708 11.2056 0.7060 5.3704 14.9681 0.0000 0.0000 0.0000 17.6804 12.7721 0.1663 -0.6247 -5.0576 14.0729 2.5828 -31.2611 5.1117 -0.3722 -3.9186 10.8478 0.9314 1.3875 3.9396 0.4519 1.9338 -2.7689 -0.2139 0.9347 -5.0580 -7.0384 -2.9501 -18.1872 7.9179 -3.4175 10.6409 3.3376 -1.2766 6.4659 -0.0000 -0.0000 0.0000 -55.9414 16.7398 41.4653 41.1296 -48.7251 -19.2839 -0.0000 0.0000 -1.3480 37.4445 13.1394 9.8751 -7.1250 0.0000 -0.0000 9.5979 46.1386 0.2722 -0.0000 -0.0000 0.0000 63.0370 1.3548 -2.4874 -34.5920 44.5186 -14.5265 0.0000 0.0000 14.9719 -22.4858 -0.3588 0.1485 7.1250 -0.0000 -0.0000 3.2280 -30.3598 1.1555
0.8596 23.4928 -0.8652 -0.9705 -3.6906 3.2933 0.0000 0.0000 0.0000 -17.7113 -1.7876 -3.4366 0.5779 4.8682 13.5329 -0.9782 29.2847 14.8114 0.6320 5.0865 14.1554 0.0000 0.0000 0.0000 18.0885 11.9375 0.2617 -0.7717 -5.6092 15.6545 1.6264 -28.8679 9.6268 -0.2692 -3.3374 9.2196 0.9592 1.3154 5.6744 0.4855 1.8594 -2.2762 -0.2267 0.8943 -5.5328 -7.1232 -3.0107 -18.1667 8.2431 -3.4709 9.6260 3.4443 -1.2848 6.1512 0.0000 0.0000 0.0000 -58.0417 15.9018 38.1159 39.6274 -47.8476 -18.1625 -0.0000 0.0000 -1.0591 37.2937 13.7577 10.2664 -7.1250 0.0000 -0.0000 9.4757 46.8627 0.4394 0.0000 0.0000 0.0000 63.7458 1.5626 -2.7117 -33.5468 43.7461 -13.7987 0.0000 0.0000 15.6979 -22.8248 -0.3439 0.1447 7.1250 -0.0000 -0.0000 2.9595 -30.3459 1.0601
0.8531 23.7110 -0.9252 -0.8231 -3.4058 2.4065 0.0000 0.0000 0.0000 -17.7847 -0.9734 -3.6950 0.6929 5.3214 14.8277 -0.2203 28.0784 18.5525 0.4235 4.1768 11.5745 0.0000 0.0000 0.0000 18.1176 11.2013 0.1373 -0.9462 -6.1951 17.3516 0.7830 -26.5989 13.5464 -0.2028 -2.8995 7.9991 0.7754 1.2754 7.2239 0.4381 1.8023 -1.8532 -0.2000 0.8686 -5.9773 -7.1789 -3.0622 -18.0087 8.4388 -3.4998 8.5280 3.5068 -1.2956 5.7848 0.0000 -0.0000 0.0000 -60.0593 14.8827 34.9533 37.9182 -46.7870 -16.9059 -0.0000 0.0000 -0.6145 37.0856 14.7360 10.8837 -7.1250 0.0000 -0.0000 9.3000 48.0065 0.6954 0.0000 -0.0000 0.0000 64.4008 1.5565 -2.7658 -32.6253 43.0400 -13.1656 0.0000 0.0000 16.1301 -23.1339 -0.8751 0.3739 7.1250 -0.0000 -0.0000 2.7333 -30.9249 0.9410
0.8459 23.9222 -0.9886 -0.6413 -3.1441 1.7134 0.0000 0.0000 0.0000 -17.8872 -0.6845 -3.8778 0.7770 5.6281 15.7090 0.2915 27.3539 21.0497 0.2503 3.2193 8.8898 0.0000 0.0000 0.0000 18.0915 10.7607 -0.1305 -1.1330 -6.7603 19.0072 0.3536 -25.9060 15.9686 -0.0459 -1.3833 3.8040 0.5299 1.2540 8.6330 0.3755 1.7553 -1.5200 -0.1516 0.8498 -6.4356 -7.0447 -3.1182 -17.9751 8.4002 -3.5601 7.7792 3.4617 -1.3291 5.5448 0.0000 0.0000 0.0000 -61.9218 13.8796 31.9671 36.2651 -45.6946 -15.7119 -0.0000 0.0000 -0.1060 36.6107 15.7736 11.4180 -7.1250 0.0000 -0.0000 8.8374 49.1631 0.9138 0.0000 0.0000 0.0000 65.0597 1.3698 -2.6178 -31.8499 42.4272 -12.6394 0.0000 0.0000 16.3633 -23.1253 -1.6170 0.6904 7.1250 -0.0000 -0.0000 2.7692 -31.7304 0.8998
0.8405 24.1293 -1.0515 -0.3911 -2.9585 1.2808 0.0000 0.0000 0.0000 -18.0960 -1.0563 -3.9150 0.8163 5.7652 16.1045 0.6061 26.7844 22.4710 0.1866 2.7819 7.6722 0.0000 0.0000 0.0000 17.9404 10.6168 -0.5849 -1.3130 -7.2581 20.4824 0.0727 -25.8082 17.7608 -0.0272 -1.0642 2.9255 0.2409 1.2534 9.7384 0.2767 1.7193 -1.2654 -0.1106 0.8384 -6.8021 -6.9295 -3.1704 -17.9156 8.4141 -3.6349 7.3047 3.4375 -1.3656 5.3904 0.0000 0.0000 0.0000 -63.5941 12.9323 29.1745 34.7951 -44.6653 -14.6691 -0.0000 -0.0000 0.5052 36.3665 16.5493 11.8458 -7.1250 0.0000 -0.0000 8.5878 50.0395 1.0738 0.0000 0.0000 0.0000 65.6687 1.1728 -2.2762 -31.0598 41.7847 -12.1097 0.0000 0.0000 16.4486 -23.1783 -2.2338 0.9561 7.1250 -0.0000 -0.0000 2.7539 -32.4014 0.8504
0.8352 24.3284 -1.0938 -0.0952 -2.9330 1.0443 0.0000 0.0000 0.0000 -18.3938 -1.6930 -3.7591 0.8100 5.7435 16.0420 0.7066 26.1590 22.6673 0.1960 2.8507 7.8632 0.0000 0.0000 0.0000 17.7151 10.7483 -0.9985 -1.4645 -7.6481 21.6504 -0.1476 -25.5953 19.0107 -0.0525 -1.4789 4.0675 -0.1058 1.3345 10.3109 0.1682 1.7767 -1.0156 -0.0491 0.8765 -6.8701 -6.9054 -3.2103 -17.8475 8.5294 -3.6978 7.0586 3.4635 -1.3906 5.3098 0.0000 -0.0000 0.0000 -65.0970 11.9460 26.7986 33.3603 -43.6051 -13.6699 -0.0000 -0.0000 0.7602 36.5583 17.7129 12.7137 -7.1250 0.0000 -0.0000 8.7785 51.4554 1.4049 0.0000 -0.0000 0.0000 66.2148 0.9921 -1.8732 -30.0855 40.9666 -11.4656 0.0000 0.0000 16.3138 -23.7168 -2.5718 1.1293 7.1250 -0.0000 -0.0000 2.3340 -32.7824 0.6990
0.8293 24.5159 -1.1085 0.1457 -3.0102 0.8528 0.0000 0.0000 0.0000 -18.6751 -2.4811 -3.2027 0.7584 5.5617 15.5178 0.5865 25.6715 21.6987 0.2248 3.0519 8.4232 0.0000 0.0000 0.0000 17.5779 11.0446 -1.1602 -1.5762 -7.9211 22.4747 -0.3137 -24.9982 19.6514 -0.0816 -1.8431 5.0723 -0.4270 1.4387 10.5535 0.0773 1.8671 -0.8321 0.0180 0.9304 -6.8207 -6.8057 -3.1925 -17.7383 8.5535 -3.7078 7.0814 3.4544 -1.3931 5.2993 -0.0000 -0.0000 0.0000 -66.4339 11.1360 24.8549 31.9916 -42.5405 -12.7351 -0.0000 -0.0000 0.4122 36.3475 18.7328 13.2963 -7.1250 0.0000 -0.0000 8.5320 52.6135 1.6081 -0.0000 -0.0000 0.0000 66.6993 0.7728 -1.2727 -28.9658 39.9902 -10.7387 0.0000 0.0000 16.1887 -24.1142 -2.7323 1.2224 7.1250 -0.0000 -0.0000 2.0186 -32.9681 0.5954
0.8245 24.6926 -1.1058 0.3870 -2.9935 0.6842 0.0000 0.0000 0.0000 -18.9535 -3.2056 -2.4647 0.6771 5.2615 14.6561 0.4366 26.0445 21.0517 0.1773 2.7125 7.4793 0.0000 0.0000 0.0000 17.4634 11.3303 -1.0706 -1.6394 -8.0707 22.9292 -0.4101 -24.4829 19.9258 -0.0919 -1.9549 5.3811 -0.7345 1.4663 10.7148 -0.0206 1.8563 -0.7607 0.0868 0.9341 -6.8431 -6.6241 -3.1040 -17.5958 8.5349 -3.6520 7.3276 3.4261 -1.3629 5.3458 0.0000 0.0000 0.0000 -67.5839 10.5382 23.2006 30.7077 -41.4923 -11.8757 -0.0000 0.0000 -0.0643 36.0924 19.1399 13.4429 -7.1250 0.0000 -0.0000 8.2416 53.0366 1.6383 0.0000 0.0000 0.0000 67.1733 0.5801 -0.5675 -27.8017 38.9331 -9.9988 0.0000 0.0000 16.5742 -23.8032 -2.6563 1.1711 7.1250 -0.0000 -0.0000 2.2677 -32.8768 0.6740
0.8235 24.8600 -1.0950 0.8439 -2.8354 0.7671 0.0000 0.0000 0.0000 -19.4518 -3.8148 -2.0536 0.5941 4.9344 13.7217 0.3107 26.0246 20.2939 0.1305 2.3284 6.4142 0.0000 0.0000 0.0000 17.0345 11.6284 -1.0456 -1.6527 -8.1018 23.0236 -0.4280 -24.1949 19.8613 -0.0848 -1.8780 5.1686 -1.2430 1.4209 10.5758 -0.1428 1.7238 -0.7996 0.2692 0.8857 -6.8161 -6.5338 -3.0044 -17.4852 8.4721 -3.5616 7.7290 3.4025 -1.3197 5.4439 -0.0000 0.0000 0.0000 -68.6841 10.0674 21.9140 29.4195 -40.3906 -11.0315 -0.0000 0.0000 -0.8658 36.6417 19.4130 13.8862 -7.1250 0.0000 -0.0000 8.8329 53.4759 1.8525 -0.0000 0.0000 0.0000 67.5897 0.4400 0.0845 -26.7048 37.8963 -9.3172 0.0000 0.0000 17.1866 -22.7949 -2.5249 1.0606 7.1250 -0.0000 -0.0000 3.0782 -32.7077 0.9280
0.8274 25.0183 -1.0859 1.1855 -2.4808 1.1501 0.0000 0.0000 0.0000 -19.8113 -4.6117 -2.0371 0.5307 4.6680 12.9640 0.0615 26.1720 18.8733 0.1179 2.2134 6.0959 0.0000 0.0000 0.0000 16.6632 11.9311 -1.1737 -1.6187 -8.0221 22.7811 -0.3433 -24.1469 19.2977 -0.0767 -1.7862 4.9153 -1.5150 1.2786 10.1949 -0.2750 1.4966 -0.9586 0.3266 0.7830 -6.7683 -6.4322 -2.9209 -17.3655 8.3480 -3.4933 8.2232 3.3559 -1.2907 5.5699 -0.0000 -0.0000 0.0000 -69.6008 9.6714 21.0680 28.1336 -39.2389 -10.2081 -0.0000 0.0000 -2.0117 37.3462 19.3732 14.2047 -7.1250 0.0000 -0.0000 9.6110 53.5849 2.0437 -0.0000 -0.0000 0.0000 68.1358 0.2955 0.6429 -25.6357 36.8467 -8.6683 0.0000 0.0000 17.7602 -22.0674 -2.7961 1.1329 7.1250 -0.0000 -0.0000 3.6829 -32.9809 1.0865
0.8301 25.1636 -1.0770 1.1544 -2.0654 1.6727 0.0000 0.0000 0.0000 -19.7295 -5.3091 -2.3052 0.4867 4.4736 12.4129 -0.2524 26.5746 17.1793 0.1110 2.1481 5.9151 0.0000 0.0000 0.0000 16.7292 12.3106 -1.2772 -1.5506 -7.8596 22.2885 -0.2425 -23.8885 18.4820 -0.0504 -1.4490 3.9851 -1.3810 1.0929 9.6888 -0.3229 1.2705 -1.1556 0.2442 0.6674 -6.6805 -6.3103 -2.8259 -17.2430 8.1975 -3.4094 8.7086 3.2991 -1.2555 5.6910 -0.0000 -0.0000 0.0000 -70.3570 9.3388 20.3712 26.9709 -38.1514 -9.4811 -0.0000 0.0000 -2.7386 37.2123 19.2265 14.0398 -7.1250 0.0000 -0.0000 9.4651 53.3820 1.9651 -0.0000 -0.0000 0.0000 68.7462 0.2076 1.0620 -24.5242 35.7137 -8.0105 0.0000 0.0000 18.4289 -21.6174 -2.6641 1.0552 7.1250 -0.0000 -0.0000 4.0393 -32.8267 1.2071
0.8284 25.2974 -1.0628 0.9235 -1.6690 2.1167 0.0000 0.0000 0.0000 -19.3996 -5.7321 -2.7274 0.4679 4.3874 12.1691 -0.5187 26.6591 15.4738 0.0389 1.2726 3.4993 0.0000 0.0000 0.0000 17.0785 12.8167 -1.1359 -1.4599 -7.6366 21.6156 -0.1506 -23.4392 17.5718 -0.0231 -0.9806 2.6953 -1.1215 0.8829 9.2115 -0.2655 1.0312 -1.3425 0.2007 0.5424 -6.5986 -6.2502 -2.6787 -17.0265 8.0864 -3.2426 9.0765 3.2733 -1.1824 5.7557 0.0000 0.0000 0.0000 -71.1181 9.1310 19.5012 25.8918 -37.1017 -8.8223 -0.0000 0.0000 -2.6857 36.1746 19.6920 13.8414 -7.1250 0.0000 -0.0000 8.3085 53.7000 1.7869 0.0000 0.0000 0.0000 69.2715 0.1086 1.4981 -23.4589 34.5868 -7.3971 0.0000 0.0000 19.0472 -21.3050 -2.1261 0.8289 7.1250 -0.0000 -0.0000 4.2576 -32.2425 1.3328
